# xmcd CD database file
#
# Track frame offsets:
#	182
#	17682
#	41257
#
# Disc length: 813 seconds
#
# Revision: 3
# Processed by: cddbd v1.4PL0 Copyright (c) Steve Scherf et al.
# Submitted via: CDex 1.40Beta9
#
DISCID=16032b03
DTITLE=Falco - Verdammt wir leben noch
DYEAR=1999
DGENRE=Acid Punk
TTITLE0=Verdammt wir leben noch (Radio Version)
TTITLE1=Verdammt wir leben noch (Album Version)
TTITLE2=Verdammt wir leben noch (Falco is a nob version)
EXTD=YEAR: 1999 ID3G: 73
EXTT0=
EXTT1=
EXTT2=
PLAYORDER=
